<svg version="1.1" id="Camada_1" xmlns="http://www.w3.org/2000/svg" xmlns:xlink="http://www.w3.org/1999/xlink" x="0px" y="0px" viewBox="0 0 122 25" style="enable-background:new 0 0 122 25;" xml:space="preserve">
<style type="text/css">
	.st0{fill:#8D6741;stroke:#8D6741;stroke-width:0.25;stroke-miterlimit:10;}
	.st1{fill-rule:evenodd;clip-rule:evenodd;fill:#8D6741;stroke:#8D6741;stroke-width:0.25;stroke-miterlimit:10;}
	.st2{fill-rule:evenodd;clip-rule:evenodd;fill:#8D6741;}
</style>
<g>
	<g id="Grupo_1" transform="translate(0)">
		<path id="Caminho_1" class="st0" d="M18,11.8c-1.7-1.7-4.4-1.7-6.1,0s-1.7,4.4,0,6.1s4.4,1.7,6.1,0c0.8-0.8,1.3-1.9,1.3-3    C19.2,13.7,18.8,12.6,18,11.8z M17.6,17.5c-1.5,1.5-3.9,1.5-5.4,0c-1.5-1.5-1.5-3.9,0-5.3c1.5-1.5,3.9-1.5,5.4,0    c0.7,0.7,1.1,1.7,1.1,2.7C18.7,15.8,18.3,16.8,17.6,17.5L17.6,17.5z"></path>
		<path id="Caminho_2" class="st0" d="M29,10.7c-0.1-0.4-0.2-0.8-0.4-1.2c-0.2-0.4-0.3-0.7-0.6-1.1c-0.2-0.3-0.5-0.6-0.8-0.9    C27,7.3,26.7,7,26.4,6.8c-0.3-0.2-0.7-0.4-1.1-0.6c-0.4-0.2-0.8-0.3-1.2-0.4c-0.4-0.1-0.8-0.1-1.2-0.1c-0.1,0-0.2,0-0.3,0    c-0.1,0-0.2,0-0.3,0c-0.1,0-0.2,0-0.3,0c-0.1,0-0.2,0-0.3,0.1c-0.1,0-0.2,0-0.2,0.1c-0.1,0-0.1,0-0.2,0c0-0.4-0.1-0.7-0.1-1.1    c-0.1-0.4-0.2-0.8-0.3-1.2c-0.2-0.4-0.3-0.7-0.6-1.1c-0.2-0.3-0.5-0.6-0.8-0.9c-0.3-0.3-0.6-0.5-0.9-0.8c-0.3-0.2-0.7-0.4-1.1-0.6    c-0.4-0.2-0.8-0.3-1.2-0.4C15.8,0,15.4,0,15,0h-0.1c-0.4,0-0.7,0-1.1,0.1c-0.4,0.1-0.8,0.2-1.2,0.4c-0.4,0.2-0.7,0.3-1.1,0.6    c-0.3,0.2-0.7,0.5-0.9,0.8c-0.6,0.6-1,1.2-1.3,2C9.2,4.2,9,4.6,9,4.9C8.9,5.3,8.8,5.7,8.8,6.1v0.1c-0.1,0-0.1,0-0.2-0.1    S8.4,6.1,8.3,6.1C8.2,6.1,8.1,6.1,8,6C7.9,6,7.7,6,7.6,6c-0.1,0-0.3,0-0.4,0c-0.1,0-0.2,0-0.4,0c-0.4,0-0.8,0-1.2,0.1h0    C5.3,6.1,4.9,6.2,4.5,6.4C4.1,6.6,3.8,6.7,3.4,7C3.1,7.2,2.8,7.5,2.5,7.7C2.2,8,2,8.3,1.7,8.7C1.5,9,1.3,9.4,1.2,9.7    c-0.2,0.4-0.3,0.8-0.4,1.2c-0.1,0.4-0.1,0.8-0.1,1.2c0,0.4,0,0.7,0.1,1.1c0.1,0.4,0.2,0.7,0.3,1c0.1,0.3,0.3,0.7,0.5,1    c0.2,0.3,0.4,0.6,0.6,0.9c0.4,0.5,0.9,0.9,1.5,1.3c0.3,0.1,0.5,0.3,0.8,0.4c0.2,0.1,0.3,0.1,0.5,0.2c0,0,0,0,0,0    c-0.1,0.1-0.2,0.2-0.2,0.3c-0.1,0.1-0.2,0.3-0.3,0.4c-0.1,0.2-0.2,0.3-0.2,0.5C4.1,19.4,4,19.6,4,19.8c-0.1,0.2-0.1,0.4-0.1,0.6    c0,0.2-0.1,0.4-0.1,0.6c0,0.2,0,0.4,0,0.6c0,0.4,0,0.8,0.1,1.2c0,0.2,0.1,0.4,0.1,0.6c0.2,0,0.4,0.1,0.6,0.1    c-0.1-0.3-0.2-0.5-0.2-0.8c-0.1-0.4-0.1-0.7-0.1-1.1c0-0.2,0-0.4,0-0.6c0-0.2,0-0.4,0.1-0.6c0-0.2,0.1-0.4,0.1-0.5    c0.1-0.2,0.1-0.3,0.2-0.5c0.1-0.1,0.1-0.3,0.2-0.4c0.1-0.1,0.2-0.3,0.2-0.4c0.1-0.1,0.1-0.2,0.2-0.3c0.1-0.1,0.2-0.2,0.2-0.3    l0.3-0.3l-0.4-0.1c-0.3-0.1-0.5-0.2-0.8-0.3c-0.2-0.1-0.5-0.2-0.7-0.4c-0.3-0.2-0.5-0.3-0.7-0.5c-0.2-0.2-0.4-0.4-0.6-0.6    c-0.2-0.3-0.4-0.5-0.6-0.8c-0.2-0.3-0.3-0.6-0.4-0.9c-0.1-0.3-0.2-0.6-0.3-0.9c-0.1-0.3-0.1-0.6-0.1-1c0-0.4,0-0.7,0.1-1.1    c0.1-0.4,0.2-0.7,0.3-1.1c0.1-0.3,0.3-0.7,0.5-1c0.2-0.3,0.4-0.6,0.7-0.9l0,0c0.3-0.3,0.5-0.5,0.9-0.7C4,7.2,4.4,7,4.7,6.9    C5,6.7,5.4,6.6,5.8,6.5c0.4-0.1,0.7-0.1,1.1-0.1c0.1,0,0.2,0,0.3,0c0.2,0,0.5,0,0.7,0.1c0.1,0,0.2,0,0.3,0.1c0.1,0,0.2,0,0.2,0.1    l0.3,0.1c0.1,0,0.1,0,0.1,0.1c0.1,0,0.1,0,0.2,0.1L9.4,7l0-0.4c0,0,0-0.1,0-0.1V6.3c0,0,0-0.1,0-0.1c0-0.7,0.2-1.5,0.4-2.1    c0.1-0.3,0.3-0.7,0.5-1c0.2-0.3,0.4-0.6,0.7-0.9c0.3-0.3,0.5-0.5,0.9-0.7c0.3-0.2,0.6-0.4,1-0.5c0.3-0.1,0.7-0.2,1.1-0.3    c0.3-0.1,0.7-0.1,1-0.1H15c0.4,0,0.7,0,1.1,0.1c0.4,0.1,0.7,0.2,1.1,0.3c0.3,0.1,0.7,0.3,1,0.5c0.3,0.2,0.6,0.4,0.9,0.7    c0.3,0.3,0.5,0.6,0.7,0.9c0.2,0.3,0.4,0.6,0.5,1c0.3,0.7,0.4,1.4,0.4,2.1c0,0,0,0.1,0,0.1v0.1l0,0.4L21,6.6c0,0,0.1,0,0.1,0    c0,0,0.1,0,0.1,0c0.1,0,0.2,0,0.2-0.1c0.1,0,0.1,0,0.2-0.1c0.1,0,0.2,0,0.3-0.1c0.1,0,0.2,0,0.3,0c0.1,0,0.2,0,0.3,0    c0.1,0,0.2,0,0.3,0c0.4,0,0.7,0,1.1,0.1c0.4,0.1,0.7,0.2,1.1,0.3c0.3,0.1,0.7,0.3,1,0.5c0.6,0.4,1.2,0.9,1.6,1.6    c0.2,0.3,0.4,0.6,0.5,1c0.1,0.3,0.2,0.7,0.3,1c0.1,0.4,0.1,0.7,0.1,1.1c0,0.3,0,0.7-0.1,1c-0.1,0.3-0.2,0.6-0.3,1    c-0.2,0.6-0.6,1.2-1,1.7c-0.2,0.2-0.4,0.4-0.7,0.6c-0.2,0.2-0.5,0.4-0.7,0.5c-0.2,0.1-0.5,0.3-0.7,0.4c-0.3,0.1-0.5,0.2-0.8,0.3    l-0.4,0.1l0.3,0.3c0.1,0.1,0.2,0.2,0.3,0.3s0.2,0.2,0.2,0.3c0.1,0.1,0.2,0.3,0.3,0.4c0.1,0.1,0.2,0.3,0.2,0.5    c0.1,0.2,0.2,0.4,0.2,0.6c0.1,0.2,0.1,0.4,0.2,0.6c0,0.2,0.1,0.4,0.1,0.6c0,0.1,0,0.1,0,0.2c0.2,0,0.3,0.1,0.5,0.1    c0-0.1,0-0.2,0-0.4c0-0.2-0.1-0.4-0.1-0.6c-0.1-0.2-0.1-0.4-0.2-0.6c-0.1-0.2-0.1-0.4-0.2-0.6c-0.1-0.2-0.2-0.3-0.3-0.5    s-0.2-0.3-0.3-0.5c-0.1-0.1-0.2-0.2-0.3-0.4c0,0,0,0,0,0c0.2,0,0.3-0.1,0.5-0.2c0.3-0.1,0.5-0.3,0.8-0.4c0.3-0.2,0.6-0.4,0.8-0.6    c0.3-0.2,0.5-0.4,0.7-0.7c0.2-0.3,0.5-0.6,0.6-0.9c0.2-0.3,0.3-0.6,0.5-1c0.1-0.3,0.2-0.7,0.3-1c0.1-0.4,0.1-0.7,0.1-1.1    C29.1,11.5,29.1,11.1,29,10.7z"></path>
		<path id="Caminho_3" class="st1" d="M1.3,24.1c2.5,0.7,5,0.9,7.5,0.9c3-0.3,6-1,8.8-1.9h0c2.9-0.9,6-1,8.9-0.3    c0.4,0.1,0.8,0.2,1.1,0.3c0.2,0,0.4,0.1,0.6,0.1v-0.7c-0.2-0.1-0.5-0.1-0.8-0.2c-0.4-0.1-0.8-0.2-1.1-0.3h0    c-0.4-0.1-0.8-0.2-1.2-0.2c-0.4-0.1-0.8-0.1-1.2-0.1c-2.1-0.2-4.2,0.1-6.3,0.7c-2.9,1-5.9,1.7-9,2c-2.6,0.1-5.1-0.2-7.6-0.8    L1.3,24.1z"></path>
	</g>
	<g id="Grupo_2" transform="translate(35.315 2.79)">
		<path id="Caminho_4" class="st2" d="M53.9,13.3c0.4-0.1,0.7-0.3,1-0.4c0.3-0.2,0.7-0.4,1-0.6C57.5,11,58.5,9,58.5,7    c0-0.5-0.1-1-0.2-1.4c-0.1-0.5-0.2-0.9-0.4-1.3c-1-2.2-3.1-3.7-5.5-3.8h-2.7l-7.7,0c-0.4,0-0.8,0.1-1,0.4c-0.3,0.3-0.4,0.7-0.4,1    v18h2.9v-6.3h7.4l3.8,6.3l0,0h3.3l0-0.1L53.9,13.3z M49.6,11h-6.2V3h8.5c1.1,0,2.1,0.4,2.8,1.2c0.8,0.7,1.2,1.7,1.2,2.8v0    c0,0.3,0,0.6-0.1,0.8c-0.1,0.3-0.2,0.5-0.3,0.8c-0.6,1.3-1.8,2.2-3.2,2.3L49.6,11z"></path>
		<path id="Caminho_5" class="st2" d="M35.6,19.8c-0.6-1.3-1.1-2.7-1.7-4C31.9,11,29.8,6.2,28,1.3l0,0c0-0.1-0.1-0.2-0.1-0.2    c-0.1-0.1-0.1-0.1-0.2-0.2c-0.3-0.3-0.7-0.5-1.1-0.5c-0.1,0-0.1,0-0.2,0c-0.1,0-0.2,0-0.2,0.1c-0.1,0-0.1,0-0.2,0.1    c-0.3,0.2-0.6,0.4-0.7,0.8c-1.8,4.8-3.9,9.7-5.9,14.5c-0.6,1.3-1.2,2.7-1.7,4l0,0.1h3v0l1.2-2.9h9.7l1.2,2.9l0,0L35.6,19.8    L35.6,19.8z M26.6,14.6h-3.9l3.9-9.5l3.9,9.5H26.6z"></path>
		<path id="Caminho_6" class="st2" d="M4.4,9.9h8.3c0.1,0,0.2,0,0.3,0.1c0.1,0,0.2,0.1,0.3,0.1c0.4,0.2,0.7,0.7,0.7,1.2v0.1    c0,0.1,0,0.2-0.1,0.3c0,0.1-0.1,0.2-0.1,0.3c-0.2,0.4-0.7,0.6-1.1,0.7H4.4v7.3h-3v-18l0,0c0-0.4,0.2-0.8,0.4-1    c0.3-0.3,0.6-0.4,1-0.4h14.2V3H4.4V9.9z"></path>
		<path id="Caminho_7" class="st2" d="M66.1,0L66.1,0c0.2,0,0.4,0,0.6,0.1c0.1,0,0.1,0.1,0.2,0.1c0.3,0.2,0.5,0.4,0.6,0.7L75,13.4    L82.5,1c0-0.1,0.1-0.2,0.1-0.2c0-0.1,0.1-0.1,0.1-0.2l0,0c0.3-0.3,0.7-0.5,1.1-0.5h0c0.1,0,0.2,0,0.3,0.1c0.1,0,0.2,0.1,0.3,0.1    l0,0c0.5,0.3,0.8,0.7,0.9,1.3l0,0v18.4h-3V5.5C81.7,7,80.8,8.4,80,9.8c-1.2,2.2-2.5,4.3-3.8,6.5l0,0l0,0l0,0    c0,0.1-0.1,0.1-0.1,0.2c-0.1,0.1-0.1,0.1-0.2,0.1C75.7,16.9,75.4,17,75,17H75c-0.1,0-0.1,0-0.2,0c-0.1,0-0.1,0-0.2-0.1l0,0    c-0.3-0.1-0.6-0.3-0.8-0.6l0,0c-1.4-2.2-2.7-4.5-4-6.8c-0.8-1.3-1.5-2.7-2.3-4v14.3h-3V1.5l0,0c0-0.1,0-0.2,0.1-0.3    c0-0.1,0.1-0.2,0.1-0.3l0,0C65,0.4,65.5,0,66.1,0z"></path>
	</g>
</g>
</svg>